<svg id="Layer_1" data-name="Layer 1" xmlns="http://www.w3.org/2000/svg" xmlns:xlink="http://www.w3.org/1999/xlink" viewBox="0 0 1200 1860.99"><defs><style>.cls-1{fill:#babcbe;}.cls-2{fill:url(#radial-gradient);}.cls-3{fill:#58595b;}.cls-4,.cls-7{fill:#6d6e71;}.cls-5{fill:#781523;}.cls-6{fill:#a61d2f;}.cls-7,.cls-8{font-size:200px;font-family:CenturyGothic-Bold, Century Gothic;font-weight:700;}.cls-8{fill:#a61e30;}</style><radialGradient id="radial-gradient" cx="599.87" cy="599" fx="1201.0437962179406" fy="598.9999999999982" r="607.25" gradientTransform="translate(-0.87) scale(1 0.96)" gradientUnits="userSpaceOnUse"><stop offset="0" stop-color="#fff"/><stop offset="0.77" stop-color="#d5d7d8"/></radialGradient></defs><rect class="cls-1" x="2" width="1198" height="1198" rx="362.72"/><rect class="cls-2" width="1198.87" height="1150.09" rx="362.72"/><path class="cls-3" d="M162.93,346.68h111L307.1,570.43c6.31,50.49,13.23,101,19.54,151.49h2.94c9.33-50.5,18.93-101.6,28.53-151.49l51.52-223.75h91.86L553,570.43c9.59,48.68,19.19,100.39,28.79,151.49h2.94c6.31-51.1,13-102.21,19.27-151.49l33.19-223.75H740.67l-85.07,479H519.43L472.59,608.14c-7.61-37-14-75.41-19.19-111.2h-2.94c-5.79,35.79-11.84,74.19-19.45,111.2L385.63,825.72H251.89Z"/><path class="cls-4" d="M115.07,346.68h111l33.19,223.75c6.31,50.49,13.23,101,19.54,151.49h2.94c9.33-50.5,18.93-101.6,28.53-151.49l51.52-223.75h91.86l51.53,223.75c9.59,48.68,19.19,100.39,28.79,151.49h2.94c6.31-51.1,13-102.21,19.27-151.49l33.19-223.75H692.81l-85.07,479H471.57L424.73,608.14c-7.61-37-14-75.41-19.19-111.2H402.6c-5.79,35.79-11.84,74.19-19.45,111.2L337.77,825.72H204Z"/><path class="cls-5" d="M504.61,346.68h111l33.19,223.75c6.31,50.49,13.23,101,19.54,151.49h2.93c9.34-50.5,18.94-101.6,28.54-151.49l51.52-223.75h91.86L894.7,570.43c9.59,48.68,19.19,100.39,28.78,151.49h2.94c6.31-51.1,13-102.21,19.28-151.49l33.19-223.75h103.46l-85.08,479H861.11L814.27,608.14c-7.61-37-14-75.41-19.19-111.2h-2.94c-5.8,35.79-11.85,74.19-19.45,111.2L727.31,825.72H593.57Z"/><path class="cls-6" d="M449.81,346.68h111L594,570.43c6.31,50.49,13.23,101,19.54,151.49h2.94c9.33-50.5,18.93-101.6,28.53-151.49l51.52-223.75h91.86L839.9,570.43c9.59,48.68,19.19,100.39,28.79,151.49h2.94c6.31-51.1,13-102.21,19.27-151.49l33.19-223.75h103.46l-85.07,479H806.31L759.47,608.14c-7.61-37-14-75.41-19.19-111.2h-2.94c-5.79,35.79-11.84,74.19-19.45,111.2L672.51,825.72H538.77Z"/><text class="cls-7" transform="translate(292.99 235.06)">Wazzu</text><text class="cls-8" transform="translate(289.99 1079.93)">Watch</text></svg>